<?xml version="1.0" standalone="no"?>
<!DOCTYPE svg PUBLIC "-//W3C//DTD SVG 20010904//EN"
 "http://www.w3.org/TR/2001/REC-SVG-20010904/DTD/svg10.dtd">
<svg version="1.0" xmlns="http://www.w3.org/2000/svg"
 width="512.000000pt" height="512.000000pt" viewBox="0 0 512.000000 512.000000"
 preserveAspectRatio="xMidYMid meet">
<metadata>
Created by potrace 1.14, written by Peter Selinger 2001-2017
</metadata>
<g transform="translate(0.000000,512.000000) scale(0.100000,-0.100000)"
fill="#000000" stroke="none">
<path d="M1233 3350 c-52 -30 -87 -68 -117 -127 -21 -42 -21 -274 -1 -528 8
-99 15 -244 15 -323 0 -156 3 -166 59 -225 61 -65 63 -65 324 -68 130 -2 239
0 243 4 8 8 5 1112 -3 1135 -14 38 -67 105 -105 133 l-41 29 -161 0 c-160 0
-161 0 -213 -30z"/>
<path d="M3162 3324 c-23 -20 -53 -55 -67 -79 l-26 -43 3 -526 3 -525 23 -23
c22 -22 29 -23 233 -26 l211 -3 59 59 59 59 0 154 c0 85 7 235 15 334 8 99 15
250 15 336 l0 157 -33 48 c-18 26 -55 63 -81 81 l-48 33 -162 0 -162 0 -42
-36z"/>
<path d="M1774 2068 c-3 -4 -4 -258 -4 -564 0 -384 4 -563 11 -577 17 -32 80
-97 111 -113 40 -21 986 -21 1026 0 31 17 94 81 111 113 8 15 11 178 11 543 0
553 -1 564 -47 586 -22 11 -1213 22 -1219 12z"/>
</g>
</svg>
